<svg xmlns="http://www.w3.org/2000/svg" width="46" height="35" fill="none" viewBox="0 0 46 35"><title>Onda Cero</title><desc>Logotipo de Onda Cero</desc><path fill="#007229" d="M45.8 0H0v35h45.8z"/><path fill="#1d1d1b" fill-rule="evenodd" d="M38.7 1.7c.5 0 1.4-.1 2.4 0 .7 0 1.9-.1 2.4.2.5.2.6.7.6 1.6 0 1-.1 2.7-.2 3.6-.2 1.9-.1 7.1-.1 9 0 3-.2 10-.2 13.1 0 .8 0 2.3-.3 2.7-.3.3-1.5.1-2.3 0-2.5-.1-5.2-.2-7.7-.1-1.7.1-3.1 0-4.7.1-1.7.1-3.3.3-4.8.4-3.5.1-6.9.3-10.2.3-3.4 0-7.2-.1-10.2.4-.4.1-1.1.5-1.6.1-.2-.3 0-1.8 0-2.6 0-4.7-.1-16.9-.1-21.2 0-1.7.5-4.1.6-5.8.1.2 0-.2 0 0-.1-.2-.3-.2-.1-.4.1-.2.7-.1 1.1-.1.8-.1 2.3-.4 3.2-.4 1.7-.1 3.3-.1 4.5-.3 1.4-.2 2.9-.4 4.4-.4 1.6-.1 3.2 0 4.7 0 6.4 0 12.4.1 18.6-.2h.1Z" clip-rule="evenodd"/><path fill="#fff" fill-rule="evenodd" d="M28.6 17.6c2.6-.2 5.2.7 7.5 1.5 1.7.6 3.5 1 5 2.3.5.4 1 1.2 1 1.7-.2 2-3.7 3.5-5.3 4.1-2.9 1-6.1 1.2-9.1 1.6-5.9 1-11.5 1.1-17.4.3-1-.1-2.1-.4-3.1-.8-.7-.3-2.7-1.2-2.8-2.1-.1-1.2 1.2-2.8 1.7-3.4 1.7-2 4.2-2.8 7.2-3.7.8-.2 2.2-.5 2.9-.5.9-.1 1.7-.1 1.9-.1 3.8 0 6.6-1 10.5-.9" clip-rule="evenodd"/><path fill="#1d1d1b" d="M28.8 24.3c-.1-.2-.2-.3-.3-.5l.3-.3c.6-.5 1.3-1 1.2-2.2v-.2c-.7-1.2-3.1-.9-4.2-.6l-.3.1v.3c0 .8-.1 1.5-.2 2.2-.1 1-.3 2-.3 3.2v.4h.6c.2 0 .4 0 .6-.1h.1l.1-.1c.1-.2.2-.6.3-.9 0-.2.1-.7.2-.8.1 0 .3.2.5.3.3.3.5.7.8 1.2l.1.2h1l.4-.1v-.3c-.1-.8-.5-1.4-.9-1.8m-1.7-1.4c0-.5 0-.9.2-1.3.7 0 .9.2.9.6-.2.3-.6.5-1.1.7m-6-2.6c-1.1 0-2.2.2-3.4.4h-.3v.3c-.1.6-.1 1.1-.2 1.7-.1 1.2-.3 2.6-.2 3.9v.4h.4c.6-.1 1.2-.1 1.8-.1h1.7l.1-.3c.1-.4.2-.7.2-1.1v-.4h-1.4c-.2 0-.3.1-.5.1h-.1c-.1 0-.3-.1-.4-.1s-.3.2-.3 0v-.6c0-.1 0-.1.1-.2v-.1c.2 0 .5 0 .7.1.4 0 .8.1 1.3 0h.2l.1-.2c.1-.2.1-.4.1-.6v-.4c.1-.1-.1-.3-.2-.3-.4-.2-.9-.2-1.4-.1h-.7V22H20c.3 0 .6-.1.9 0l.4.1v-.5c.1-.2.1-.5.2-.7v-.1l.1-.5zm-8.6.3c-.8.4-2.2 1.3-2.7 2.7-.3.7-.2 1.4.1 2 .5 1 1.3 2 3.4 1.8h.2l.1-.2c.2-.4.1-.8.1-1.2v-.1l-.1-.3h-.3c-.5 0-1-.1-1.3-.4-.3-.2-.4-.5-.4-.9 0-.5.4-1.1.8-1.4h.2c.1-.1.4-.2.5-.4q.15-.45 0-.9v-.2m23.9.8v-.1c-.1-.3-.3-.5-.5-.6s-.4-.3-.8-.4c-.1 0-.3-.1-.4 0-.1 0-.2.1-.3.1h-.3c-.5.1-1.2.6-1.4.9-.8.9-1.4 3-.6 4 .3.4.7.6 1.1.6.8.1 1.5-.3 1.9-.6.8-.8 1.6-2.2 1.3-3.9m-1.8 1.8c-.1.2-.2.4-.5.5-.2 0-.5-.2-.6-.2 0-.1 0-.3.1-.5.1-.4.4-.6.5-.6.3-.1.4 0 .4.1.2.1.2.5.1.8z"/><path fill="#fff" fill-rule="evenodd" d="M43 2.8c-1.9-.1-4-.1-6 0-9.1.4-17.9-.5-25.7.4-2.8.4-5.3.2-8 .8-.6 3.3-.8 10.5-.5 14.3 3 0 5.9-.1 8.6-.3.5 0 1.1-.2 1.6-.3-1.3-.1-3.6-.5-5-.9-.5-.2-1.1-.4-1.5-.7-.2-.1-.3-.4-.6-.6-.6-.6-1.4-1.5-1.5-2.7 0-1.2.8-2.3 1.4-2.9.9-.8 2.2-1.4 3.6-2 2.6-1.2 5.1-2.1 8.1-2.6 1.4-.3 3-.7 4.5-.7s3.7.3 5.4.4c3.8.2 6.9.8 9.8 2.3 1.2.7 3.2 1.7 3.5 3.5.2 1.1-.5 2.4-.9 2.9-.8.8-2.2 1.3-3.5 1.6-1.7.5-3.5 1-5.3 1.3h.1c.4 0 2.3-.1 3.1-.2 1 0 2 .1 3.1.2q2.25.15 4.2.3c.4 0 .9-.1 1.3 0-.2-3.8.5-10.7.2-14.1" clip-rule="evenodd"/><path fill="#fff" d="M20.8 13.3c-.5 0-.7-.2-1-.3-.1-.1-.5-.4-.6-.5s-1.1-.9-2-1.4c-.3.7.1 2.2-.6 2.3-.4.1-.9-.3-1-.5 0-.2.1-.5.1-.7.1-.9.1-3 .9-3.1.5-.1 1 .7 1.6 1 .6.4 1.2.5 1.8.9.4-.5-.2-2 .4-2.2.7-.2 1.1.8 1 1.4 0 .3-.2.6-.2.9-.1 1 0 1.6-.4 2.2m8.5-3.1c-.4-.8-2.6-1.2-3.7-1.2s-.7 2.3-.9 3.4c0 .3-.2.4-.2.7.7 1.1 2.5.3 3.3-.1.7-.3 1.5-.6 1.8-1.3.1-.4 0-1.2-.3-1.5m-2.7 2.3c0-.6.1-1.6.1-2.3.5.1 1.2.1 1.4.5.6.9-.8 1.6-1.5 1.8M11.5 9.2c-.8-.4-2-.1-2.7.3-.3.3-.5.9-.6 1.4-.2.8 0 2.1.2 2.6.6 1.1 2.4 1.6 3.5.5 1.2-1.3.9-4.1-.4-4.8m-1.3 4.2c-.5-.9-.3-2.6.6-3 .7.8.4 2.7-.6 3m25.9-2.6c-.3-.6-.7-2-1.5-1.9-.1 0-.2.1-.2.1-1 1.2-2.4 2.8-2.9 4.2.9 1.1 1.2-.3 1.9-.5s1.1.1 2 0c.2.5 1 1.3 1.6.6-.3-.8-.5-1.7-.9-2.5m-2.1.9c.1-.5.4-.7.6-1.1.4.2.5.7.7 1.1z"/></svg>